<?xml version="1.0" encoding="utf-8"?>
<!-- Generator: Adobe Illustrator 25.2.1, SVG Export Plug-In . SVG Version: 6.00 Build 0)  -->
<svg version="1.1" id="Camada_1" xmlns="http://www.w3.org/2000/svg" xmlns:xlink="http://www.w3.org/1999/xlink" x="0px" y="0px"
	 viewBox="0 0 209 90" style="enable-background:new 0 0 209 90;" xml:space="preserve">
<style type="text/css">
	.st0{fill:#FFFFFF;}
</style>
<g>
	<g>
		<path class="st0" d="M4.78,85.83c0.47,0.29,1.16,0.53,1.89,0.53c1.08,0,1.71-0.57,1.71-1.4c0-0.76-0.44-1.2-1.54-1.63
			c-1.33-0.47-2.16-1.16-2.16-2.32c0-1.27,1.06-2.22,2.64-2.22c0.84,0,1.44,0.19,1.81,0.4l-0.29,0.86
			c-0.27-0.15-0.81-0.39-1.55-0.39c-1.12,0-1.54,0.67-1.54,1.23c0,0.76,0.5,1.14,1.63,1.58c1.38,0.53,2.09,1.2,2.09,2.4
			c0,1.26-0.93,2.35-2.86,2.35c-0.79,0-1.65-0.23-2.09-0.52L4.78,85.83z"/>
		<path class="st0" d="M11.96,78.94v8.18h-1.06v-8.18H11.96z"/>
		<path class="st0" d="M13.66,85.83c0.47,0.29,1.16,0.53,1.89,0.53c1.08,0,1.71-0.57,1.71-1.4c0-0.76-0.44-1.2-1.54-1.63
			c-1.33-0.47-2.16-1.16-2.16-2.32c0-1.27,1.06-2.22,2.64-2.22c0.84,0,1.44,0.19,1.81,0.4l-0.29,0.86
			c-0.27-0.15-0.81-0.39-1.55-0.39c-1.12,0-1.54,0.67-1.54,1.23c0,0.76,0.5,1.14,1.63,1.58c1.38,0.53,2.09,1.2,2.09,2.4
			c0,1.26-0.93,2.35-2.86,2.35c-0.79,0-1.65-0.23-2.09-0.52L13.66,85.83z"/>
		<path class="st0" d="M21.34,79.84h-2.49v-0.9h6.05v0.9h-2.5v7.28h-1.07V79.84z"/>
		<path class="st0" d="M30.06,83.28h-3.18v2.95h3.54v0.89h-4.6v-8.18h4.42v0.89h-3.36v2.58h3.18V83.28z"/>
		<path class="st0" d="M38.68,83.52c-0.06-1.14-0.13-2.51-0.12-3.53h-0.04c-0.28,0.96-0.62,1.98-1.03,3.11l-1.44,3.97h-0.8
			l-1.32-3.89c-0.39-1.15-0.72-2.21-0.95-3.18h-0.02c-0.02,1.02-0.08,2.39-0.16,3.61l-0.22,3.51h-1.01l0.57-8.18h1.35l1.4,3.95
			c0.34,1.01,0.62,1.9,0.83,2.75h0.04c0.21-0.82,0.5-1.72,0.86-2.75l1.46-3.95h1.35l0.51,8.18h-1.03L38.68,83.52z"/>
		<path class="st0" d="M42.75,84.54l-0.85,2.57h-1.09l2.78-8.18h1.27l2.79,8.18h-1.13l-0.87-2.57H42.75z M45.43,83.72l-0.8-2.35
			c-0.18-0.53-0.3-1.02-0.42-1.49h-0.02c-0.12,0.49-0.25,0.98-0.41,1.48l-0.8,2.37H45.43z"/>
		<path class="st0" d="M51.43,79.05c0.64-0.1,1.41-0.17,2.24-0.17c1.52,0,2.6,0.35,3.31,1.02c0.73,0.67,1.15,1.61,1.15,2.94
			c0,1.33-0.41,2.43-1.18,3.18c-0.76,0.76-2.03,1.18-3.62,1.18c-0.75,0-1.38-0.04-1.92-0.1V79.05z M52.49,86.28
			c0.27,0.05,0.65,0.06,1.07,0.06c2.26,0,3.48-1.26,3.48-3.47c0.01-1.93-1.08-3.15-3.31-3.15c-0.55,0-0.96,0.05-1.24,0.11V86.28z"/>
		<path class="st0" d="M63.75,83.28h-3.18v2.95h3.54v0.89h-4.6v-8.18h4.42v0.89h-3.36v2.58h3.18V83.28z"/>
		<path class="st0" d="M69.38,84.54l-0.85,2.57h-1.09l2.78-8.18h1.27l2.79,8.18h-1.13l-0.87-2.57H69.38z M72.06,83.72l-0.8-2.35
			c-0.18-0.53-0.3-1.02-0.42-1.49h-0.02c-0.12,0.49-0.25,0.98-0.41,1.48l-0.8,2.37H72.06z"/>
		<path class="st0" d="M76.1,79.84h-2.49v-0.9h6.05v0.9h-2.5v7.28H76.1V79.84z"/>
		<path class="st0" d="M81.64,78.94v4.84c0,1.83,0.81,2.61,1.9,2.61c1.21,0,1.99-0.8,1.99-2.61v-4.84h1.07v4.77
			c0,2.51-1.32,3.54-3.09,3.54c-1.67,0-2.94-0.96-2.94-3.49v-4.82H81.64z"/>
		<path class="st0" d="M89.34,84.54l-0.85,2.57H87.4l2.78-8.18h1.27l2.79,8.18h-1.13l-0.87-2.57H89.34z M92.02,83.72l-0.8-2.35
			c-0.18-0.53-0.3-1.02-0.42-1.49h-0.02c-0.12,0.49-0.25,0.98-0.41,1.48l-0.8,2.37H92.02z"/>
		<path class="st0" d="M95.45,78.94h1.06v7.29H100v0.89h-4.55V78.94z"/>
		<path class="st0" d="M102.23,78.94v8.18h-1.06v-8.18H102.23z"/>
		<path class="st0" d="M103.52,86.5l4.54-6.64v-0.04h-4.15v-0.89h5.52v0.64l-4.51,6.61v0.04h4.57v0.89h-5.97V86.5z"/>
		<path class="st0" d="M112.11,84.54l-0.85,2.57h-1.09l2.78-8.18h1.27l2.79,8.18h-1.13l-0.87-2.57H112.11z M114.79,83.72l-0.8-2.35
			c-0.18-0.53-0.3-1.02-0.42-1.49h-0.02c-0.12,0.49-0.25,0.98-0.41,1.48l-0.8,2.37H114.79z"/>
		<path class="st0" d="M123.75,86.85c-0.39,0.19-1.15,0.39-2.15,0.39l-0.28,0.49c0.45,0.08,0.85,0.41,0.85,0.91
			c0,0.7-0.62,0.98-1.25,0.98c-0.32,0-0.66-0.08-0.86-0.21l0.17-0.55c0.18,0.1,0.41,0.16,0.68,0.16c0.28,0,0.51-0.11,0.51-0.36
			c0-0.33-0.38-0.46-0.95-0.52l0.51-0.93c-2-0.24-3.43-1.66-3.43-4.1c0-2.56,1.73-4.29,4.27-4.29c1.02,0,1.66,0.22,1.94,0.36
			l-0.25,0.86c-0.4-0.19-0.97-0.34-1.65-0.34c-1.92,0-3.19,1.23-3.19,3.37c0,2,1.15,3.29,3.14,3.29c0.64,0,1.3-0.13,1.72-0.34
			L123.75,86.85z"/>
		<path class="st0" d="M126.45,84.54l-0.85,2.57h-1.09l2.78-8.18h1.27l2.79,8.18h-1.13l-0.87-2.57H126.45z M126.45,78.44
			c-0.01-0.74,0.3-1.24,0.82-1.24c0.27,0,0.47,0.11,0.73,0.24c0.19,0.11,0.39,0.22,0.57,0.22c0.19,0,0.3-0.08,0.33-0.47h0.57
			c0.01,0.76-0.25,1.18-0.82,1.18c-0.25,0-0.47-0.1-0.74-0.23c-0.23-0.12-0.39-0.23-0.57-0.23c-0.19,0-0.28,0.21-0.32,0.53H126.45z
			 M129.13,83.72l-0.8-2.35c-0.18-0.53-0.3-1.02-0.42-1.49h-0.02c-0.12,0.49-0.25,0.98-0.41,1.48l-0.8,2.37H129.13z"/>
		<path class="st0" d="M139.36,82.94c0,2.81-1.71,4.31-3.8,4.31c-2.16,0-3.68-1.67-3.68-4.15c0-2.6,1.61-4.29,3.8-4.29
			C137.91,78.8,139.36,80.52,139.36,82.94z M133.01,83.07c0,1.75,0.95,3.31,2.61,3.31c1.67,0,2.62-1.54,2.62-3.4
			c0-1.63-0.85-3.32-2.61-3.32C133.89,79.67,133.01,81.28,133.01,83.07z"/>
		<path class="st0" d="M149.02,86.85c-0.39,0.19-1.16,0.39-2.16,0.39c-2.3,0-4.04-1.46-4.04-4.14c0-2.56,1.73-4.29,4.27-4.29
			c1.02,0,1.66,0.22,1.94,0.36l-0.25,0.86c-0.4-0.19-0.97-0.34-1.65-0.34c-1.92,0-3.19,1.23-3.19,3.37c0,2,1.15,3.29,3.14,3.29
			c0.64,0,1.3-0.13,1.72-0.34L149.02,86.85z"/>
		<path class="st0" d="M151.71,84.54l-0.85,2.57h-1.09l2.78-8.18h1.27l2.79,8.18h-1.13l-0.87-2.57H151.71z M154.4,83.72l-0.8-2.35
			c-0.18-0.53-0.3-1.02-0.42-1.49h-0.02c-0.12,0.49-0.25,0.98-0.41,1.48l-0.8,2.37H154.4z"/>
		<path class="st0" d="M157.82,79.05c0.64-0.1,1.41-0.17,2.24-0.17c1.52,0,2.6,0.35,3.31,1.02c0.73,0.67,1.15,1.61,1.15,2.94
			c0,1.33-0.41,2.43-1.18,3.18c-0.76,0.76-2.03,1.18-3.62,1.18c-0.75,0-1.38-0.04-1.92-0.1V79.05z M158.88,86.28
			c0.27,0.05,0.65,0.06,1.07,0.06c2.26,0,3.48-1.26,3.48-3.47c0.01-1.93-1.08-3.15-3.31-3.15c-0.55,0-0.96,0.05-1.24,0.11V86.28z"/>
		<path class="st0" d="M167.05,84.54l-0.85,2.57h-1.09l2.78-8.18h1.27l2.79,8.18h-1.13l-0.87-2.57H167.05z M169.74,83.72l-0.8-2.35
			c-0.18-0.53-0.3-1.02-0.42-1.49h-0.02c-0.12,0.49-0.25,0.98-0.41,1.48l-0.8,2.37H169.74z"/>
		<path class="st0" d="M173.01,85.83c0.47,0.29,1.16,0.53,1.89,0.53c1.08,0,1.71-0.57,1.71-1.4c0-0.76-0.44-1.2-1.54-1.63
			c-1.33-0.47-2.16-1.16-2.16-2.32c0-1.27,1.06-2.22,2.64-2.22c0.84,0,1.44,0.19,1.81,0.4l-0.29,0.86
			c-0.27-0.15-0.81-0.39-1.55-0.39c-1.12,0-1.54,0.67-1.54,1.23c0,0.76,0.5,1.14,1.63,1.58c1.38,0.53,2.09,1.2,2.09,2.4
			c0,1.26-0.93,2.35-2.86,2.35c-0.79,0-1.65-0.23-2.09-0.52L173.01,85.83z"/>
		<path class="st0" d="M180.7,79.84h-2.49v-0.9h6.05v0.9h-2.5v7.28h-1.07V79.84z"/>
		<path class="st0" d="M185.18,79.05c0.53-0.11,1.3-0.17,2.03-0.17c1.13,0,1.86,0.21,2.37,0.67c0.41,0.36,0.64,0.92,0.64,1.55
			c0,1.08-0.68,1.79-1.54,2.09v0.04c0.63,0.22,1.01,0.8,1.2,1.65c0.27,1.14,0.46,1.93,0.63,2.24h-1.09
			c-0.13-0.23-0.32-0.93-0.55-1.95c-0.24-1.13-0.68-1.55-1.64-1.59h-0.99v3.54h-1.06V79.05z M186.23,82.77h1.08
			c1.13,0,1.84-0.62,1.84-1.55c0-1.06-0.76-1.52-1.88-1.53c-0.51,0-0.87,0.05-1.04,0.1V82.77z"/>
		<path class="st0" d="M193.09,84.54l-0.85,2.57h-1.09l2.78-8.18h1.27l2.79,8.18h-1.13l-0.87-2.57H193.09z M195.77,83.72l-0.8-2.35
			c-0.18-0.53-0.3-1.02-0.42-1.49h-0.02c-0.12,0.49-0.25,0.98-0.41,1.48l-0.8,2.37H195.77z"/>
		<path class="st0" d="M199.19,78.94h1.06v7.29h3.49v0.89h-4.55V78.94z"/>
	</g>
	<g>
		<path class="st0" d="M39.51,23.2H24.74v-4.53c0-2.12-0.19-3.46-0.57-4.04c-0.38-0.58-1.01-0.87-1.89-0.87
			c-0.96,0-1.68,0.39-2.17,1.17c-0.49,0.78-0.74,1.97-0.74,3.55c0,2.04,0.28,3.58,0.83,4.61c0.53,1.03,2.02,2.28,4.49,3.74
			c7.08,4.2,11.54,7.65,13.38,10.34c1.84,2.69,2.76,7.04,2.76,13.03c0,4.36-0.51,7.57-1.53,9.63c-1.02,2.06-2.99,3.8-5.91,5.19
			c-2.92,1.4-6.32,2.1-10.2,2.1c-4.26,0-7.89-0.81-10.9-2.42c-3.01-1.61-4.98-3.66-5.91-6.16c-0.93-2.49-1.4-6.03-1.4-10.61v-4
			h14.77v7.44c0,2.29,0.21,3.76,0.62,4.42s1.15,0.98,2.21,0.98s1.84-0.42,2.36-1.25s0.77-2.06,0.77-3.7c0-3.6-0.49-5.96-1.47-7.06
			c-1.01-1.11-3.49-2.96-7.44-5.55c-3.95-2.62-6.57-4.52-7.86-5.7c-1.28-1.18-2.35-2.82-3.19-4.91c-0.84-2.09-1.27-4.76-1.27-8.01
			c0-4.68,0.6-8.11,1.79-10.27c1.2-2.17,3.13-3.86,5.8-5.08c2.67-1.22,5.89-1.83,9.67-1.83c4.13,0,7.65,0.67,10.56,2
			c2.91,1.33,4.83,3.02,5.78,5.04c0.94,2.03,1.42,5.47,1.42,10.33V23.2z"/>
		<path class="st0" d="M73.3,4.69l9.09,61.15H66.15l-0.85-10.99H59.6l-0.96,10.99H42.21l8.11-61.15H73.3z M64.88,44.01
			c-0.8-6.93-1.61-15.49-2.42-25.69c-1.62,11.71-2.64,20.27-3.05,25.69H64.88z"/>
		<path class="st0" d="M122.23,31.32h-15.9V20.69c0-3.09-0.17-5.02-0.51-5.79c-0.34-0.77-1.09-1.15-2.25-1.15
			c-1.31,0-2.14,0.47-2.49,1.4c-0.35,0.93-0.53,2.95-0.53,6.04V49.6c0,2.97,0.18,4.91,0.53,5.82c0.35,0.91,1.15,1.36,2.38,1.36
			c1.18,0,1.96-0.45,2.32-1.36c0.36-0.91,0.55-3.04,0.55-6.4v-7.69h15.9v2.38c0,6.33-0.45,10.82-1.34,13.47
			c-0.89,2.65-2.87,4.97-5.93,6.96s-6.83,2.99-11.31,2.99c-4.66,0-8.5-0.84-11.52-2.53c-3.02-1.69-5.02-4.02-6.01-7.01
			c-0.98-2.98-1.47-7.47-1.47-13.47V26.26c0-4.41,0.15-7.71,0.45-9.92c0.3-2.2,1.2-4.32,2.7-6.36c1.5-2.04,3.58-3.65,6.23-4.82
			s5.71-1.76,9.16-1.76c4.68,0,8.55,0.91,11.6,2.72c3.05,1.81,5.05,4.07,6.01,6.77s1.44,6.91,1.44,12.62V31.32z"/>
		<path class="st0" d="M155.42,4.69l9.09,61.15h-16.25l-0.85-10.99h-5.69l-0.96,10.99h-16.44l8.11-61.15H155.42z M146.99,44.01
			c-0.8-6.93-1.61-15.49-2.42-25.69c-1.62,11.71-2.64,20.27-3.05,25.69H146.99z"/>
		<path class="st0" d="M167.22,4.69h11.9c7.68,0,12.87,0.35,15.58,1.06c2.71,0.71,4.77,1.86,6.18,3.48
			c1.41,1.61,2.29,3.41,2.64,5.38c0.35,1.98,0.53,5.86,0.53,11.65v21.42c0,5.49-0.26,9.16-0.77,11.01c-0.52,1.85-1.42,3.3-2.7,4.34
			s-2.87,1.78-4.76,2.19s-4.73,0.62-8.54,0.62h-20.06V4.69z M183.12,15.16v40.23c2.29,0,3.7-0.46,4.23-1.38
			c0.53-0.92,0.79-3.42,0.79-7.5V22.75c0-2.77-0.09-4.55-0.26-5.33c-0.18-0.78-0.58-1.35-1.21-1.72
			C186.04,15.34,184.86,15.16,183.12,15.16z"/>
	</g>
	<g>
		<rect x="4" y="72" class="st0" width="200" height="1"/>
	</g>
</g>
</svg>
