<?xml version="1.0" encoding="utf-8"?>
<!-- Generator: Adobe Illustrator 25.2.1, SVG Export Plug-In . SVG Version: 6.00 Build 0)  -->
<svg version="1.1" id="Camada_1" xmlns="http://www.w3.org/2000/svg" xmlns:xlink="http://www.w3.org/1999/xlink" x="0px" y="0px"
	 viewBox="0 0 1678.97 418.95" style="enable-background:new 0 0 1678.97 418.95;" xml:space="preserve">
<style type="text/css">
	.st0{fill:#FFFFFF;}
</style>
<g>
	<g>
		<g>
			<g>
				<circle class="st0" cx="247.19" cy="230.24" r="74.02"/>
			</g>
		</g>
		<g>
			<g>
				<g>
					<path class="st0" d="M116.02,407.24c-21.29,0-38.61-17.32-38.61-38.61s17.32-38.61,38.61-38.61s38.61,17.32,38.61,38.61
						S137.31,407.24,116.02,407.24z M116.02,344.72c-13.19,0-23.91,10.73-23.91,23.91s10.73,23.91,23.91,23.91
						c13.19,0,23.91-10.73,23.91-23.91S129.2,344.72,116.02,344.72z"/>
				</g>
			</g>
			<g>
				<g>
					<path class="st0" d="M244.26,80.7c-0.71,0-1.43-0.02-2.14-0.07c-9.11-0.56-17.46-4.63-23.51-11.47
						c-6.04-6.84-9.07-15.62-8.51-24.73c0.56-9.11,4.63-17.46,11.47-23.51c6.84-6.04,15.58-9.09,24.73-8.51
						c9.11,0.56,17.46,4.63,23.51,11.47c6.04,6.84,9.07,15.62,8.51,24.73c-0.56,9.11-4.63,17.46-11.47,23.51
						C260.55,77.69,252.6,80.7,244.26,80.7z M244.19,27.04c-4.75,0-9.28,1.71-12.87,4.89c-3.9,3.45-6.22,8.21-6.54,13.4
						c-0.32,5.19,1.4,10.2,4.85,14.1h0c7.11,8.04,19.45,8.8,27.49,1.69c3.9-3.44,6.22-8.2,6.54-13.4c0.32-5.19-1.4-10.2-4.85-14.09
						c-3.45-3.9-8.21-6.22-13.4-6.54C245,27.06,244.6,27.04,244.19,27.04z"/>
				</g>
			</g>
			<g>
				<g>
					<path class="st0" d="M400.52,156.98c-2.31,0-4.64-0.21-6.96-0.63c-10.15-1.84-18.97-7.52-24.85-15.99
						c-5.88-8.48-8.1-18.73-6.27-28.88c1.84-10.15,7.52-18.97,15.99-24.85c8.48-5.88,18.74-8.11,28.88-6.27
						c10.15,1.84,18.97,7.52,24.85,15.99c5.88,8.48,8.1,18.73,6.26,28.88s-7.52,18.97-15.99,24.85
						C415.9,154.62,408.3,156.98,400.52,156.98z M400.38,94.44c-4.82,0-9.53,1.46-13.58,4.27c-5.25,3.64-8.76,9.11-9.9,15.39
						c-2.35,12.97,6.29,25.44,19.27,27.79c6.29,1.14,12.64-0.24,17.89-3.88c5.25-3.64,8.76-9.1,9.9-15.39
						c1.14-6.29-0.24-12.64-3.88-17.89c-3.64-5.25-9.1-8.76-15.39-9.9C403.26,94.57,401.82,94.44,400.38,94.44z"/>
				</g>
			</g>
			<g>
				<g>
					<path class="st0" d="M71.3,216.38c-30.38,0-55.1-24.72-55.1-55.1s24.72-55.1,55.1-55.1c30.38,0,55.1,24.72,55.1,55.1
						S101.69,216.38,71.3,216.38z M71.3,135.57c-14.17,0-25.7,11.53-25.7,25.71s11.53,25.71,25.7,25.71s25.71-11.53,25.71-25.71
						S85.48,135.57,71.3,135.57z"/>
				</g>
			</g>
			<g>
				<g>
					<polygon class="st0" points="151.81,183.36 142.86,201.53 115.13,190.08 123.91,172.08 					"/>
				</g>
			</g>
			<g>
				<g>
					<path class="st0" d="M374.68,386.9c-25.28,0-45.85-20.57-45.85-45.85c0-25.28,20.57-45.85,45.85-45.85s45.85,20.57,45.85,45.85
						C420.53,366.32,399.96,386.9,374.68,386.9z M374.68,314.78c-14.48,0-26.26,11.78-26.26,26.26c0,14.48,11.78,26.26,26.26,26.26
						s26.26-11.78,26.26-26.26C400.93,326.56,389.16,314.78,374.68,314.78z"/>
				</g>
			</g>
			<g>
				<g>
					<polygon class="st0" points="321.21,304.26 338.62,321.87 349.54,308.55 331.17,290.18 					"/>
				</g>
			</g>
			<g>
				<g>
					<polygon class="st0" points="253.43,75.54 232.66,75.34 232.83,165.17 253.26,165.17 					"/>
				</g>
			</g>
			<g>
				<g>
					<polygon class="st0" points="377.22,148.14 365.37,133.04 300.01,183.99 311.81,198.73 					"/>
				</g>
			</g>
			<g>
				<g>
					<polygon class="st0" points="133.56,335.19 147.91,347.93 203.14,286.16 188.9,273.76 					"/>
				</g>
			</g>
			<g>
				<g>
					<path class="st0" d="M222.03,127.13c-6.65,1.6-14.75,4.17-23.5,8.45c-6.47,3.16-11.93,6.59-16.41,9.8
						c-4.74,3.56-10.12,8.18-15.52,14.07c-7.19,7.84-12.22,15.56-15.7,21.88c-1.57,2.7-3.21,5.92-4.71,9.65
						c-1.55,3.86-2.6,7.44-3.33,10.56c-1.39,4.86-2.67,10.69-3.41,17.33c-0.89,8.04-0.74,15.15-0.22,20.93
						c0.71,6.97,2.16,15.43,5.09,24.76c3.7,11.77,8.58,21.21,12.86,28.16c3.95-4.06,7.9-8.13,11.85-12.19
						c-4.05-7.73-8.48-18.43-10.79-31.69c-0.63-3.61-3.12-19.01-0.23-35.02c0.49-2.69,1.51-8.18,4.13-14.93
						c0.35-0.9,1.85-4.76,4.48-9.56c1.62-2.96,3.55-6.12,5.86-9.38c4.01-5.67,8.17-10.26,11.94-13.89
						c6.76-6.04,15.81-12.72,27.4-18.13c3.63-1.69,7.14-3.09,10.49-4.26C222.22,138.15,222.12,132.64,222.03,127.13z"/>
				</g>
			</g>
			<g>
				<g>
					<path class="st0" d="M262.85,126.44c-0.1,4.85-0.19,9.7-0.29,14.55c3.01,0.35,6.8,0.95,11.11,2.07
						c6.71,1.74,11.54,3.89,13,4.56c2.47,1.13,7.85,3.76,13.95,8.35c4.16,3.13,7.44,6.25,9.9,8.87c3.82-3.39,7.64-6.77,11.45-10.16
						c-4.46-4.08-8.68-7.34-12.31-9.9c-6.58-4.63-11.95-7.45-15.33-9.21c-6.06-3.16-9.39-4.35-10.25-4.65
						c-3.68-1.29-6.93-2.05-8.74-2.47c-1.62-0.37-3.94-0.86-6.75-1.3C266.59,126.84,264.67,126.61,262.85,126.44z"/>
				</g>
			</g>
			<g>
				<g>
					<path class="st0" d="M187.44,317.73c12.33,8.66,23.78,12.7,31.2,14.7c23.44,6.33,42.98,2.14,51.44,0.22
						c8.92-2.02,15.91-4.77,19.92-6.5c9.76-4.22,17.51-9.21,23.27-13.55c2.53-1.82,5.35-4.09,8.24-6.88
						c2.99-2.89,5.41-5.73,7.36-8.28c2.72-3.57,6.44-8.07,10.19-14.43c2.21-3.74,6.35-10.85,9.23-20.56
						c0.88-2.96,3.12-11.17,3.32-24.4c0.3-20.06-4.31-38-8.73-50.67c-4.09,3-8.19,5.99-12.28,8.99c1.91,5.25,3.85,12.06,4.9,20.18
						c0.99,7.67,0.9,14.41,0.46,19.77c0.21,5.98-0.29,13.79-2.94,22.4c-2.9,9.42-7.16,15.81-10.68,21.01
						c-6.6,9.75-13.29,15.85-14.81,17.22c-3.92,3.52-14.41,12.3-30.66,17.91c-5.42,1.88-18.62,5.83-35.82,4.82
						c-19.97-1.17-35-8.61-43.06-13.43C194.46,310.08,190.95,313.9,187.44,317.73z"/>
				</g>
			</g>
		</g>
	</g>
	<g>
		<g>
			<path class="st0" d="M497.53,302.33v-62.54l120.49-130.38h-116.6V42.1h219.25v62.01l-121.9,131.27H727.2v66.96H497.53z"/>
			<path class="st0" d="M782.27,302.33L873.78,42.1h84.63l91.52,260.24h-82.86l-9.72-34.45h-82.86l-10.07,34.45H782.27z
				 M889.68,213.29h52.47l-25.97-90.1L889.68,213.29z"/>
			<path class="st0" d="M1158.7,302.33V110.65h-74.91V42.1h233.38v68.55h-74.91v191.69H1158.7z"/>
			<path class="st0" d="M1386.56,42.1h83.57v160.42c0,14.84,3.09,25.41,9.28,31.71c6.18,6.3,16.52,9.45,31.01,9.45
				c14.13,0,24.23-3.09,30.3-9.28c6.07-6.18,9.1-16.81,9.1-31.89V42.1h83.57v166.95c0,32.63-10.51,57.54-31.54,74.73
				c-21.02,17.2-51.5,25.79-91.43,25.79c-40.17,0-70.84-8.63-92.05-25.88c-21.2-17.25-31.8-42.14-31.8-74.64V42.1z"/>
		</g>
		<g>
			<path class="st0" d="M499.8,371.17c2.19,1.35,5.4,2.48,8.78,2.48c5.01,0,7.94-2.64,7.94-6.47c0-3.55-2.03-5.57-7.15-7.54
				c-6.19-2.19-10.02-5.4-10.02-10.75c0-5.91,4.9-10.3,12.27-10.3c3.88,0,6.7,0.9,8.39,1.86l-1.35,4c-1.24-0.68-3.77-1.8-7.2-1.8
				c-5.18,0-7.15,3.1-7.15,5.68c0,3.55,2.31,5.29,7.54,7.32c6.42,2.48,9.68,5.57,9.68,11.14c0,5.85-4.33,10.92-13.28,10.92
				c-3.66,0-7.66-1.07-9.68-2.42L499.8,371.17z"/>
			<path class="st0" d="M533.12,339.2v37.94h-4.9V339.2H533.12z"/>
			<path class="st0" d="M541,371.17c2.19,1.35,5.4,2.48,8.78,2.48c5.01,0,7.94-2.64,7.94-6.47c0-3.55-2.03-5.57-7.15-7.54
				c-6.19-2.19-10.02-5.4-10.02-10.75c0-5.91,4.9-10.3,12.27-10.3c3.88,0,6.7,0.9,8.39,1.86l-1.35,4c-1.24-0.68-3.77-1.8-7.2-1.8
				c-5.18,0-7.15,3.1-7.15,5.68c0,3.55,2.31,5.29,7.54,7.32c6.42,2.48,9.68,5.57,9.68,11.14c0,5.85-4.33,10.92-13.28,10.92
				c-3.66,0-7.66-1.07-9.68-2.42L541,371.17z"/>
			<path class="st0" d="M576.63,343.37h-11.54v-4.17h28.09v4.17h-11.6v33.77h-4.95V343.37z"/>
			<path class="st0" d="M617.04,359.35h-14.75v13.68h16.43v4.11H597.4V339.2h20.49v4.11h-15.59v11.99h14.75V359.35z"/>
			<path class="st0" d="M657.06,360.48c-0.28-5.29-0.62-11.65-0.56-16.38h-0.17c-1.29,4.45-2.87,9.17-4.78,14.41l-6.7,18.4h-3.71
				l-6.14-18.07c-1.8-5.35-3.32-10.24-4.39-14.75h-0.11c-0.11,4.73-0.39,11.09-0.73,16.77l-1.01,16.27h-4.67l2.65-37.94h6.25
				l6.47,18.35c1.58,4.67,2.87,8.84,3.83,12.78h0.17c0.96-3.83,2.31-7.99,4-12.78l6.75-18.35h6.25l2.36,37.94h-4.78L657.06,360.48z"
				/>
			<path class="st0" d="M675.91,365.21l-3.94,11.93h-5.06l12.89-37.94h5.91l12.95,37.94h-5.24l-4.05-11.93H675.91z M688.35,361.38
				l-3.72-10.92c-0.84-2.48-1.41-4.73-1.97-6.92h-0.11c-0.56,2.25-1.18,4.56-1.91,6.87l-3.72,10.98H688.35z"/>
			<path class="st0" d="M721.05,339.2v37.94h-4.9V339.2H721.05z"/>
			<path class="st0" d="M729.6,377.14V339.2h5.35l12.16,19.19c2.82,4.45,5.01,8.44,6.81,12.33l0.11-0.05
				c-0.45-5.07-0.56-9.68-0.56-15.59V339.2h4.62v37.94h-4.95l-12.04-19.25c-2.64-4.22-5.18-8.55-7.09-12.66l-0.17,0.06
				c0.28,4.78,0.39,9.34,0.39,15.65v16.21H729.6z"/>
			<path class="st0" d="M773.84,343.37H762.3v-4.17h28.09v4.17h-11.6v33.77h-4.95V343.37z"/>
			<path class="st0" d="M814.25,359.35h-14.75v13.68h16.43v4.11h-21.33V339.2h20.49v4.11h-15.59v11.99h14.75V359.35z"/>
			<path class="st0" d="M851.17,375.45c-2.19,0.79-6.53,2.08-11.65,2.08c-5.74,0-10.47-1.46-14.18-5.01
				c-3.26-3.15-5.29-8.22-5.29-14.13c0.06-11.31,7.82-19.59,20.54-19.59c4.39,0,7.82,0.96,9.46,1.75l-1.18,4
				c-2.03-0.9-4.56-1.63-8.39-1.63c-9.23,0-15.25,5.74-15.25,15.25c0,9.62,5.8,15.31,14.63,15.31c3.21,0,5.4-0.45,6.53-1.01v-11.31
				h-7.71v-3.94h12.49V375.45z"/>
			<path class="st0" d="M858.66,339.71c2.48-0.51,6.02-0.79,9.4-0.79c5.24,0,8.61,0.96,10.98,3.1c1.91,1.69,2.98,4.28,2.98,7.2
				c0,5.01-3.15,8.33-7.15,9.68v0.17c2.93,1.01,4.67,3.72,5.57,7.66c1.24,5.29,2.14,8.95,2.93,10.41h-5.06
				c-0.62-1.07-1.46-4.33-2.53-9.06c-1.12-5.24-3.15-7.2-7.6-7.37h-4.61v16.43h-4.9V339.71z M863.56,356.99h5.01
				c5.24,0,8.55-2.87,8.55-7.2c0-4.9-3.55-7.04-8.72-7.09c-2.36,0-4.05,0.23-4.84,0.45V356.99z"/>
			<path class="st0" d="M895.36,365.21l-3.94,11.93h-5.06l12.89-37.94h5.91l12.95,37.94h-5.24l-4.05-11.93H895.36z M907.8,361.38
				l-3.72-10.92c-0.84-2.48-1.41-4.73-1.97-6.92H902c-0.56,2.25-1.18,4.56-1.91,6.87l-3.72,10.98H907.8z"/>
			<path class="st0" d="M923.67,339.71c2.98-0.45,6.53-0.79,10.41-0.79c7.04,0,12.04,1.63,15.37,4.73c3.38,3.1,5.35,7.49,5.35,13.62
				c0,6.19-1.91,11.26-5.46,14.75c-3.55,3.55-9.4,5.46-16.77,5.46c-3.49,0-6.42-0.17-8.89-0.45V339.71z M928.56,373.25
				c1.24,0.22,3.04,0.28,4.95,0.28c10.47,0,16.15-5.85,16.15-16.1c0.06-8.95-5.01-14.63-15.36-14.63c-2.53,0-4.45,0.23-5.74,0.51
				V373.25z"/>
			<path class="st0" d="M993.57,357.78c0,13.06-7.94,19.98-17.62,19.98c-10.02,0-17.05-7.77-17.05-19.25
				c0-12.05,7.49-19.92,17.62-19.92C986.87,338.58,993.57,346.52,993.57,357.78z M964.13,358.39c0,8.11,4.39,15.37,12.1,15.37
				c7.77,0,12.16-7.15,12.16-15.76c0-7.54-3.94-15.42-12.1-15.42C968.19,342.58,964.13,350.06,964.13,358.39z"/>
			<path class="st0" d="M1011.86,339.71c2.98-0.45,6.53-0.79,10.41-0.79c7.04,0,12.05,1.63,15.37,4.73
				c3.38,3.1,5.35,7.49,5.35,13.62c0,6.19-1.91,11.26-5.46,14.75c-3.55,3.55-9.4,5.46-16.77,5.46c-3.49,0-6.42-0.17-8.89-0.45
				V339.71z M1016.76,373.25c1.24,0.22,3.04,0.28,4.95,0.28c10.47,0,16.15-5.85,16.15-16.1c0.06-8.95-5.01-14.63-15.36-14.63
				c-2.53,0-4.45,0.23-5.74,0.51V373.25z"/>
			<path class="st0" d="M1068.99,359.35h-14.75v13.68h16.43v4.11h-21.33V339.2h20.49v4.11h-15.59v11.99h14.75V359.35z"/>
			<path class="st0" d="M1117.84,375.45c-2.19,0.79-6.53,2.08-11.65,2.08c-5.74,0-10.47-1.46-14.18-5.01
				c-3.26-3.15-5.29-8.22-5.29-14.13c0.06-11.31,7.82-19.59,20.54-19.59c4.39,0,7.82,0.96,9.46,1.75l-1.18,4
				c-2.03-0.9-4.56-1.63-8.39-1.63c-9.23,0-15.25,5.74-15.25,15.25c0,9.62,5.8,15.31,14.63,15.31c3.21,0,5.4-0.45,6.53-1.01v-11.31
				h-7.71v-3.94h12.49V375.45z"/>
			<path class="st0" d="M1144.97,359.35h-14.75v13.68h16.43v4.11h-21.33V339.2h20.49v4.11h-15.59v11.99h14.75V359.35z"/>
			<path class="st0" d="M1152.34,371.17c2.19,1.35,5.4,2.48,8.78,2.48c5.01,0,7.94-2.64,7.94-6.47c0-3.55-2.03-5.57-7.15-7.54
				c-6.19-2.19-10.02-5.4-10.02-10.75c0-5.91,4.9-10.3,12.27-10.3c3.88,0,6.7,0.9,8.39,1.86l-1.35,4c-1.24-0.68-3.77-1.8-7.2-1.8
				c-5.18,0-7.15,3.1-7.15,5.68c0,3.55,2.31,5.29,7.54,7.32c6.42,2.48,9.68,5.57,9.68,11.14c0,5.85-4.33,10.92-13.28,10.92
				c-3.66,0-7.66-1.07-9.68-2.42L1152.34,371.17z"/>
			<path class="st0" d="M1187.97,343.37h-11.54v-4.17h28.09v4.17h-11.6v33.77h-4.95V343.37z"/>
			<path class="st0" d="M1210.65,365.21l-3.94,11.93h-5.06l12.89-37.94h5.91l12.95,37.94h-5.24l-4.05-11.93H1210.65z
				 M1210.65,336.89c-0.05-3.43,1.41-5.74,3.83-5.74c1.24,0,2.19,0.51,3.38,1.13c0.9,0.51,1.8,1.01,2.65,1.01
				c0.9,0,1.41-0.39,1.52-2.2h2.65c0.06,3.55-1.18,5.46-3.83,5.46c-1.18,0-2.19-0.45-3.43-1.07c-1.07-0.56-1.8-1.07-2.65-1.07
				c-0.9,0-1.29,0.96-1.46,2.48H1210.65z M1223.09,361.38l-3.72-10.92c-0.84-2.48-1.41-4.73-1.97-6.92h-0.11
				c-0.56,2.25-1.18,4.56-1.91,6.87l-3.72,10.98H1223.09z"/>
			<path class="st0" d="M1270.54,357.78c0,13.06-7.94,19.98-17.62,19.98c-10.02,0-17.05-7.77-17.05-19.25
				c0-12.05,7.49-19.92,17.62-19.92C1263.84,338.58,1270.54,346.52,1270.54,357.78z M1241.1,358.39c0,8.11,4.39,15.37,12.1,15.37
				c7.77,0,12.16-7.15,12.16-15.76c0-7.54-3.94-15.42-12.1-15.42C1245.15,342.58,1241.1,350.06,1241.1,358.39z"/>
			<path class="st0" d="M1294.96,365.21l-3.94,11.93h-5.06l12.89-37.94h5.91l12.95,37.94h-5.24l-4.05-11.93H1294.96z M1307.4,361.38
				l-3.72-10.92c-0.84-2.48-1.41-4.73-1.97-6.92h-0.11c-0.56,2.25-1.18,4.56-1.91,6.87l-3.72,10.98H1307.4z"/>
			<path class="st0" d="M1323.27,339.71c2.98-0.45,6.53-0.79,10.41-0.79c7.04,0,12.04,1.63,15.37,4.73
				c3.38,3.1,5.35,7.49,5.35,13.62c0,6.19-1.91,11.26-5.46,14.75c-3.55,3.55-9.4,5.46-16.77,5.46c-3.49,0-6.42-0.17-8.89-0.45
				V339.71z M1328.17,373.25c1.24,0.22,3.04,0.28,4.95,0.28c10.47,0,16.15-5.85,16.15-16.1c0.06-8.95-5.01-14.63-15.36-14.63
				c-2.53,0-4.45,0.23-5.74,0.51V373.25z"/>
			<path class="st0" d="M1392.73,360.48c-0.28-5.29-0.62-11.65-0.56-16.38h-0.17c-1.3,4.45-2.87,9.17-4.78,14.41l-6.7,18.4h-3.71
				l-6.14-18.07c-1.8-5.35-3.32-10.24-4.39-14.75h-0.11c-0.11,4.73-0.39,11.09-0.73,16.77l-1.01,16.27h-4.67l2.65-37.94h6.25
				l6.47,18.35c1.58,4.67,2.87,8.84,3.83,12.78h0.17c0.96-3.83,2.31-7.99,4-12.78l6.75-18.35h6.25l2.36,37.94h-4.78L1392.73,360.48z
				"/>
			<path class="st0" d="M1410.9,339.2v37.94h-4.9V339.2H1410.9z"/>
			<path class="st0" d="M1418.78,371.17c2.19,1.35,5.4,2.48,8.78,2.48c5.01,0,7.94-2.64,7.94-6.47c0-3.55-2.03-5.57-7.15-7.54
				c-6.19-2.19-10.02-5.4-10.02-10.75c0-5.91,4.9-10.3,12.27-10.3c3.88,0,6.7,0.9,8.39,1.86l-1.35,4c-1.24-0.68-3.77-1.8-7.2-1.8
				c-5.18,0-7.15,3.1-7.15,5.68c0,3.55,2.31,5.29,7.54,7.32c6.42,2.48,9.68,5.57,9.68,11.14c0,5.85-4.33,10.92-13.28,10.92
				c-3.66,0-7.66-1.07-9.68-2.42L1418.78,371.17z"/>
			<path class="st0" d="M1454.41,343.37h-11.54v-4.17h28.09v4.17h-11.6v33.77h-4.95V343.37z"/>
			<path class="st0" d="M1475.18,339.71c2.48-0.51,6.02-0.79,9.4-0.79c5.24,0,8.61,0.96,10.98,3.1c1.91,1.69,2.98,4.28,2.98,7.2
				c0,5.01-3.15,8.33-7.15,9.68v0.17c2.92,1.01,4.67,3.72,5.57,7.66c1.24,5.29,2.14,8.95,2.93,10.41h-5.06
				c-0.62-1.07-1.46-4.33-2.53-9.06c-1.12-5.24-3.15-7.2-7.6-7.37h-4.62v16.43h-4.9V339.71z M1480.08,356.99h5.01
				c5.24,0,8.55-2.87,8.55-7.2c0-4.9-3.55-7.04-8.72-7.09c-2.36,0-4.05,0.23-4.84,0.45V356.99z"/>
			<path class="st0" d="M1511.87,365.21l-3.94,11.93h-5.06l12.89-37.94h5.91l12.95,37.94h-5.24l-4.05-11.93H1511.87z
				 M1524.31,361.38l-3.72-10.92c-0.84-2.48-1.41-4.73-1.97-6.92h-0.11c-0.56,2.25-1.18,4.56-1.91,6.87l-3.72,10.98H1524.31z"/>
			<path class="st0" d="M1543.06,343.37h-11.54v-4.17h28.09v4.17h-11.6v33.77h-4.95V343.37z"/>
			<path class="st0" d="M1568.72,339.2v37.94h-4.9V339.2H1568.72z"/>
			<path class="st0" d="M1585.61,377.14l-12.38-37.94h5.29l5.91,18.69c1.63,5.12,3.04,9.74,4.05,14.18h0.11
				c1.07-4.39,2.65-9.18,4.33-14.13l6.42-18.74h5.24l-13.56,37.94H1585.61z"/>
			<path class="st0" d="M1611.61,365.21l-3.94,11.93h-5.06l12.89-37.94h5.91l12.95,37.94h-5.24l-4.05-11.93H1611.61z
				 M1624.05,361.38l-3.72-10.92c-0.84-2.48-1.41-4.73-1.97-6.92h-0.11c-0.56,2.25-1.18,4.56-1.91,6.87l-3.72,10.98H1624.05z"/>
		</g>
	</g>
</g>
</svg>
