<?xml version="1.0" encoding="utf-8"?>
<!-- Generator: Adobe Illustrator 25.2.1, SVG Export Plug-In . SVG Version: 6.00 Build 0)  -->
<svg version="1.1" id="Camada_1" xmlns="http://www.w3.org/2000/svg" xmlns:xlink="http://www.w3.org/1999/xlink" x="0px" y="0px"
	 viewBox="0 0 1679 419" style="enable-background:new 0 0 1679 419;" xml:space="preserve">
<style type="text/css">
	.st0{fill:url(#SVGID_1_);}
	.st1{fill:#2C96E3;}
	.st2{fill:#747575;}
	.st3{fill:#555655;}
	.st4{fill:#7C7C7C;}
	.st5{opacity:0.9;}
	.st6{filter:url(#Adobe_OpacityMaskFilter);}
	.st7{opacity:0.75;mask:url(#SVGID_2_);}
	.st8{fill:#FFFFFF;}
</style>
<g>
	<g>
		<g>
			<g>
				<radialGradient id="SVGID_1_" cx="247.19" cy="230.24" r="74.02" gradientUnits="userSpaceOnUse">
					<stop  offset="0" style="stop-color:#1ECFFA"/>
					<stop  offset="0.1243" style="stop-color:#21C4F5"/>
					<stop  offset="0.4553" style="stop-color:#27ABEB"/>
					<stop  offset="0.7568" style="stop-color:#2B9BE5"/>
					<stop  offset="1" style="stop-color:#2C96E3"/>
				</radialGradient>
				<circle class="st0" cx="247.2" cy="230.2" r="74"/>
			</g>
		</g>
		<g>
			<g>
				<g>
					<path class="st1" d="M116,407.2c-21.3,0-38.6-17.3-38.6-38.6S94.7,330,116,330s38.6,17.3,38.6,38.6S137.3,407.2,116,407.2z
						 M116,344.7c-13.2,0-23.9,10.7-23.9,23.9s10.7,23.9,23.9,23.9c13.2,0,23.9-10.7,23.9-23.9S129.2,344.7,116,344.7z"/>
				</g>
			</g>
			<g>
				<g>
					<path class="st1" d="M244.3,80.7c-0.7,0-1.4,0-2.1-0.1c-9.1-0.6-17.5-4.6-23.5-11.5c-6-6.8-9.1-15.6-8.5-24.7
						s4.6-17.5,11.5-23.5c6.8-6,15.6-9.1,24.7-8.5c9.1,0.6,17.5,4.6,23.5,11.5c6,6.8,9.1,15.6,8.5,24.7s-4.6,17.5-11.5,23.5
						C260.5,77.7,252.6,80.7,244.3,80.7z M244.2,27c-4.8,0-9.3,1.7-12.9,4.9c-3.9,3.5-6.2,8.2-6.5,13.4c-0.3,5.2,1.4,10.2,4.9,14.1
						l0,0c7.1,8,19.4,8.8,27.5,1.7c3.9-3.4,6.2-8.2,6.5-13.4c0.3-5.2-1.4-10.2-4.9-14.1c-3.4-3.9-8.2-6.2-13.4-6.5
						C245,27.1,244.6,27,244.2,27z"/>
				</g>
			</g>
			<g>
				<g>
					<path class="st1" d="M400.5,157c-2.3,0-4.6-0.2-7-0.6c-10.1-1.8-19-7.5-24.9-16c-5.9-8.5-8.1-18.7-6.3-28.9
						c1.8-10.2,7.5-19,16-24.8c8.5-5.9,18.7-8.1,28.9-6.3c10.1,1.8,19,7.5,24.9,16c5.9,8.5,8.1,18.7,6.3,28.9s-7.5,19-16,24.8
						C415.9,154.6,408.3,157,400.5,157z M400.4,94.4c-4.8,0-9.5,1.5-13.6,4.3c-5.3,3.6-8.8,9.1-9.9,15.4c-2.4,13,6.3,25.4,19.3,27.8
						c6.3,1.1,12.6-0.2,17.9-3.9c5.3-3.6,8.8-9.1,9.9-15.4c1.1-6.3-0.2-12.6-3.9-17.9s-9.1-8.8-15.4-9.9
						C403.3,94.6,401.8,94.4,400.4,94.4z"/>
				</g>
			</g>
			<g>
				<g>
					<path class="st2" d="M71.3,216.4c-30.4,0-55.1-24.7-55.1-55.1s24.7-55.1,55.1-55.1s55.1,24.7,55.1,55.1S101.7,216.4,71.3,216.4
						z M71.3,135.6c-14.2,0-25.7,11.5-25.7,25.7S57.1,187,71.3,187S97,175.5,97,161.3S85.5,135.6,71.3,135.6z"/>
				</g>
			</g>
			<g>
				<g>
					<polygon class="st2" points="151.8,183.4 142.9,201.5 115.1,190.1 123.9,172.1 					"/>
				</g>
			</g>
			<g>
				<g>
					<path class="st2" d="M374.7,386.9c-25.3,0-45.9-20.6-45.9-45.9s20.6-45.9,45.9-45.9s45.9,20.6,45.9,45.9
						C420.5,366.3,400,386.9,374.7,386.9z M374.7,314.8c-14.5,0-26.3,11.8-26.3,26.3s11.8,26.3,26.3,26.3s26.3-11.8,26.3-26.3
						C400.9,326.6,389.2,314.8,374.7,314.8z"/>
				</g>
			</g>
			<g>
				<g>
					<polygon class="st2" points="321.2,304.3 338.6,321.9 349.5,308.5 331.2,290.2 					"/>
				</g>
			</g>
			<g>
				<g>
					<polygon class="st1" points="253.4,75.5 232.7,75.3 232.8,165.2 253.3,165.2 					"/>
				</g>
			</g>
			<g>
				<g>
					<polygon class="st1" points="377.2,148.1 365.4,133 300,184 311.8,198.7 					"/>
				</g>
			</g>
			<g>
				<g>
					<polygon class="st1" points="133.6,335.2 147.9,347.9 203.1,286.2 188.9,273.8 					"/>
				</g>
			</g>
			<g>
				<g>
					<path class="st2" d="M222,127.1c-6.6,1.6-14.8,4.2-23.5,8.5c-6.5,3.2-11.9,6.6-16.4,9.8c-4.7,3.6-10.1,8.2-15.5,14.1
						c-7.2,7.8-12.2,15.6-15.7,21.9c-1.6,2.7-3.2,5.9-4.7,9.6c-1.6,3.9-2.6,7.4-3.3,10.6c-1.4,4.9-2.7,10.7-3.4,17.3
						c-0.9,8-0.7,15.1-0.2,20.9c0.7,7,2.2,15.4,5.1,24.8c3.7,11.8,8.6,21.2,12.9,28.2c3.9-4.1,7.9-8.1,11.9-12.2
						c-4.1-7.7-8.5-18.4-10.8-31.7c-0.6-3.6-3.1-19-0.2-35c0.5-2.7,1.5-8.2,4.1-14.9c0.4-0.9,1.9-4.8,4.5-9.6c1.6-3,3.6-6.1,5.9-9.4
						c4-5.7,8.2-10.3,11.9-13.9c6.8-6,15.8-12.7,27.4-18.1c3.6-1.7,7.1-3.1,10.5-4.3C222.2,138.1,222.1,132.6,222,127.1z"/>
				</g>
			</g>
			<g>
				<g>
					<path class="st1" d="M262.9,126.4c-0.1,4.9-0.2,9.7-0.3,14.6c3,0.4,6.8,0.9,11.1,2.1c6.7,1.7,11.5,3.9,13,4.6
						c2.5,1.1,7.9,3.8,14,8.4c4.2,3.1,7.4,6.3,9.9,8.9c3.8-3.4,7.6-6.8,11.5-10.2c-4.5-4.1-8.7-7.3-12.3-9.9
						c-6.6-4.6-12-7.4-15.3-9.2c-6.1-3.2-9.4-4.4-10.3-4.6c-3.7-1.3-6.9-2.1-8.7-2.5c-1.6-0.4-3.9-0.9-6.8-1.3
						C266.6,126.8,264.7,126.6,262.9,126.4z"/>
				</g>
			</g>
			<g>
				<g>
					<path class="st2" d="M187.4,317.7c12.3,8.7,23.8,12.7,31.2,14.7c23.4,6.3,43,2.1,51.4,0.2c8.9-2,15.9-4.8,19.9-6.5
						c9.8-4.2,17.5-9.2,23.3-13.5c2.5-1.8,5.4-4.1,8.2-6.9c3-2.9,5.4-5.7,7.4-8.3c2.7-3.6,6.4-8.1,10.2-14.4
						c2.2-3.7,6.4-10.9,9.2-20.6c0.9-3,3.1-11.2,3.3-24.4c0.3-20.1-4.3-38-8.7-50.7c-4.1,3-8.2,6-12.3,9c1.9,5.3,3.9,12.1,4.9,20.2
						c1,7.7,0.9,14.4,0.5,19.8c0.2,6-0.3,13.8-2.9,22.4c-2.9,9.4-7.2,15.8-10.7,21c-6.6,9.8-13.3,15.9-14.8,17.2
						c-3.9,3.5-14.4,12.3-30.7,17.9c-5.4,1.9-18.6,5.8-35.8,4.8c-20-1.2-35-8.6-43.1-13.4C194.5,310.1,190.9,313.9,187.4,317.7z"/>
				</g>
			</g>
		</g>
	</g>
	<g>
		<g>
			<path class="st3" d="M497.5,302.3v-62.5L618,109.4H501.4V42.1h219.3v62L598.8,235.4h128.4v67L497.5,302.3L497.5,302.3z"/>
			<path class="st3" d="M782.3,302.3l91.5-260.2h84.6l91.5,260.2h-82.9l-9.7-34.5h-82.9l-10.1,34.5L782.3,302.3L782.3,302.3z
				 M889.7,213.3h52.5l-26-90.1L889.7,213.3z"/>
			<path class="st3" d="M1158.7,302.3V110.7h-74.9V42.1h233.4v68.6h-74.9v191.7L1158.7,302.3L1158.7,302.3z"/>
			<path class="st3" d="M1386.6,42.1h83.6v160.4c0,14.8,3.1,25.4,9.3,31.7c6.2,6.3,16.5,9.4,31,9.4c14.1,0,24.2-3.1,30.3-9.3
				c6.1-6.2,9.1-16.8,9.1-31.9V42.1h83.6V209c0,32.6-10.5,57.5-31.5,74.7c-21,17.2-51.5,25.8-91.4,25.8c-40.2,0-70.8-8.6-92.1-25.9
				c-21.2-17.3-31.8-42.1-31.8-74.6L1386.6,42.1L1386.6,42.1z"/>
		</g>
		<g>
			<path class="st4" d="M499.8,371.2c2.2,1.4,5.4,2.5,8.8,2.5c5,0,7.9-2.6,7.9-6.5c0-3.5-2-5.6-7.1-7.5c-6.2-2.2-10-5.4-10-10.8
				c0-5.9,4.9-10.3,12.3-10.3c3.9,0,6.7,0.9,8.4,1.9l-1.3,4c-1.2-0.7-3.8-1.8-7.2-1.8c-5.2,0-7.1,3.1-7.1,5.7c0,3.5,2.3,5.3,7.5,7.3
				c6.4,2.5,9.7,5.6,9.7,11.1c0,5.9-4.3,10.9-13.3,10.9c-3.7,0-7.7-1.1-9.7-2.4L499.8,371.2z"/>
			<path class="st4" d="M533.1,339.2v37.9h-4.9v-37.9H533.1z"/>
			<path class="st4" d="M541,371.2c2.2,1.4,5.4,2.5,8.8,2.5c5,0,7.9-2.6,7.9-6.5c0-3.5-2-5.6-7.2-7.5c-6.2-2.2-10-5.4-10-10.8
				c0-5.9,4.9-10.3,12.3-10.3c3.9,0,6.7,0.9,8.4,1.9l-1.3,4c-1.2-0.7-3.8-1.8-7.2-1.8c-5.2,0-7.2,3.1-7.2,5.7c0,3.5,2.3,5.3,7.5,7.3
				c6.4,2.5,9.7,5.6,9.7,11.1c0,5.9-4.3,10.9-13.3,10.9c-3.7,0-7.7-1.1-9.7-2.4L541,371.2z"/>
			<path class="st4" d="M576.6,343.4h-11.5v-4.2h28.1v4.2h-11.6v33.8h-5L576.6,343.4L576.6,343.4z"/>
			<path class="st4" d="M617,359.4h-14.8V373h16.4v4.1h-21.3v-37.9h20.5v4.1h-15.6v12H617L617,359.4L617,359.4z"/>
			<path class="st4" d="M657.1,360.5c-0.3-5.3-0.6-11.6-0.6-16.4h-0.2c-1.3,4.5-2.9,9.2-4.8,14.4l-6.7,18.4h-3.7l-6.1-18.1
				c-1.8-5.4-3.3-10.2-4.4-14.8h-0.1c-0.1,4.7-0.4,11.1-0.7,16.8l-1,16.3h-4.7l2.7-37.9h6.3l6.5,18.4c1.6,4.7,2.9,8.8,3.8,12.8h0.2
				c1-3.8,2.3-8,4-12.8l6.8-18.4h6.3l2.4,37.9H658L657.1,360.5z"/>
			<path class="st4" d="M675.9,365.2l-3.9,11.9h-5.1l12.9-37.9h5.9l13,37.9h-5.2l-4-11.9H675.9z M688.3,361.4l-3.7-10.9
				c-0.8-2.5-1.4-4.7-2-6.9h-0.1c-0.6,2.3-1.2,4.6-1.9,6.9l-3.7,11L688.3,361.4L688.3,361.4z"/>
			<path class="st4" d="M721,339.2v37.9h-4.9v-37.9H721z"/>
			<path class="st4" d="M729.6,377.1v-37.9h5.3l12.2,19.2c2.8,4.5,5,8.4,6.8,12.3l0.1,0c-0.5-5.1-0.6-9.7-0.6-15.6v-15.9h4.6v37.9
				h-5l-12-19.3c-2.6-4.2-5.2-8.5-7.1-12.7l-0.2,0.1c0.3,4.8,0.4,9.3,0.4,15.6v16.2L729.6,377.1L729.6,377.1z"/>
			<path class="st4" d="M773.8,343.4h-11.5v-4.2h28.1v4.2h-11.6v33.8h-5V343.4z"/>
			<path class="st4" d="M814.3,359.4h-14.8V373h16.4v4.1h-21.3v-37.9h20.5v4.1h-15.6v12h14.8L814.3,359.4L814.3,359.4z"/>
			<path class="st4" d="M851.2,375.5c-2.2,0.8-6.5,2.1-11.7,2.1c-5.7,0-10.5-1.5-14.2-5c-3.3-3.1-5.3-8.2-5.3-14.1
				c0.1-11.3,7.8-19.6,20.5-19.6c4.4,0,7.8,1,9.5,1.8l-1.2,4c-2-0.9-4.6-1.6-8.4-1.6c-9.2,0-15.3,5.7-15.3,15.3
				c0,9.6,5.8,15.3,14.6,15.3c3.2,0,5.4-0.5,6.5-1v-11.3h-7.7v-3.9h12.5V375.5z"/>
			<path class="st4" d="M858.7,339.7c2.5-0.5,6-0.8,9.4-0.8c5.2,0,8.6,1,11,3.1c1.9,1.7,3,4.3,3,7.2c0,5-3.2,8.3-7.2,9.7v0.2
				c2.9,1,4.7,3.7,5.6,7.7c1.2,5.3,2.1,9,2.9,10.4h-5.1c-0.6-1.1-1.5-4.3-2.5-9.1c-1.1-5.2-3.2-7.2-7.6-7.4h-4.6v16.4h-4.9
				L858.7,339.7L858.7,339.7z M863.6,357h5c5.2,0,8.5-2.9,8.5-7.2c0-4.9-3.5-7-8.7-7.1c-2.4,0-4,0.2-4.8,0.5V357z"/>
			<path class="st4" d="M895.4,365.2l-3.9,11.9h-5.1l12.9-37.9h5.9l13,37.9h-5.2l-4-11.9H895.4z M907.8,361.4l-3.7-10.9
				c-0.8-2.5-1.4-4.7-2-6.9H902c-0.6,2.3-1.2,4.6-1.9,6.9l-3.7,11L907.8,361.4L907.8,361.4z"/>
			<path class="st4" d="M923.7,339.7c3-0.5,6.5-0.8,10.4-0.8c7,0,12,1.6,15.4,4.7c3.4,3.1,5.3,7.5,5.3,13.6c0,6.2-1.9,11.3-5.5,14.8
				c-3.5,3.5-9.4,5.5-16.8,5.5c-3.5,0-6.4-0.2-8.9-0.5L923.7,339.7L923.7,339.7z M928.6,373.3c1.2,0.2,3,0.3,5,0.3
				c10.5,0,16.2-5.9,16.2-16.1c0.1-9-5-14.6-15.4-14.6c-2.5,0-4.5,0.2-5.7,0.5L928.6,373.3L928.6,373.3z"/>
			<path class="st4" d="M993.6,357.8c0,13.1-7.9,20-17.6,20c-10,0-17-7.8-17-19.3c0-12,7.5-19.9,17.6-19.9
				C986.9,338.6,993.6,346.5,993.6,357.8z M964.1,358.4c0,8.1,4.4,15.4,12.1,15.4c7.8,0,12.2-7.1,12.2-15.8
				c0-7.5-3.9-15.4-12.1-15.4C968.2,342.6,964.1,350.1,964.1,358.4z"/>
			<path class="st4" d="M1011.9,339.7c3-0.5,6.5-0.8,10.4-0.8c7,0,12,1.6,15.4,4.7c3.4,3.1,5.3,7.5,5.3,13.6
				c0,6.2-1.9,11.3-5.5,14.8c-3.6,3.5-9.4,5.5-16.8,5.5c-3.5,0-6.4-0.2-8.9-0.5L1011.9,339.7L1011.9,339.7z M1016.8,373.3
				c1.2,0.2,3,0.3,5,0.3c10.5,0,16.1-5.9,16.1-16.1c0.1-9-5-14.6-15.4-14.6c-2.5,0-4.5,0.2-5.7,0.5V373.3z"/>
			<path class="st4" d="M1069,359.4h-14.8V373h16.4v4.1h-21.3v-37.9h20.5v4.1h-15.6v12h14.8L1069,359.4L1069,359.4z"/>
			<path class="st4" d="M1117.8,375.5c-2.2,0.8-6.5,2.1-11.7,2.1c-5.7,0-10.5-1.5-14.2-5c-3.3-3.1-5.3-8.2-5.3-14.1
				c0.1-11.3,7.8-19.6,20.5-19.6c4.4,0,7.8,1,9.5,1.8l-1.2,4c-2-0.9-4.6-1.6-8.4-1.6c-9.2,0-15.3,5.7-15.3,15.3
				c0,9.6,5.8,15.3,14.6,15.3c3.2,0,5.4-0.5,6.5-1v-11.3h-7.7v-3.9h12.5L1117.8,375.5L1117.8,375.5z"/>
			<path class="st4" d="M1145,359.4h-14.8V373h16.4v4.1h-21.3v-37.9h20.5v4.1h-15.6v12h14.8L1145,359.4L1145,359.4z"/>
			<path class="st4" d="M1152.3,371.2c2.2,1.4,5.4,2.5,8.8,2.5c5,0,7.9-2.6,7.9-6.5c0-3.5-2-5.6-7.2-7.5c-6.2-2.2-10-5.4-10-10.8
				c0-5.9,4.9-10.3,12.3-10.3c3.9,0,6.7,0.9,8.4,1.9l-1.3,4c-1.2-0.7-3.8-1.8-7.2-1.8c-5.2,0-7.2,3.1-7.2,5.7c0,3.5,2.3,5.3,7.5,7.3
				c6.4,2.5,9.7,5.6,9.7,11.1c0,5.9-4.3,10.9-13.3,10.9c-3.7,0-7.7-1.1-9.7-2.4L1152.3,371.2z"/>
			<path class="st4" d="M1188,343.4h-11.5v-4.2h28.1v4.2h-11.6v33.8h-4.9V343.4z"/>
			<path class="st4" d="M1210.7,365.2l-3.9,11.9h-5.1l12.9-37.9h5.9l12.9,37.9h-5.2l-4.1-11.9H1210.7z M1210.7,336.9
				c-0.1-3.4,1.4-5.7,3.8-5.7c1.2,0,2.2,0.5,3.4,1.1c0.9,0.5,1.8,1,2.7,1c0.9,0,1.4-0.4,1.5-2.2h2.7c0.1,3.5-1.2,5.5-3.8,5.5
				c-1.2,0-2.2-0.5-3.4-1.1c-1.1-0.6-1.8-1.1-2.7-1.1c-0.9,0-1.3,1-1.5,2.5H1210.7z M1223.1,361.4l-3.7-10.9c-0.8-2.5-1.4-4.7-2-6.9
				h-0.1c-0.6,2.3-1.2,4.6-1.9,6.9l-3.7,11L1223.1,361.4L1223.1,361.4z"/>
			<path class="st4" d="M1270.5,357.8c0,13.1-7.9,20-17.6,20c-10,0-17.1-7.8-17.1-19.3c0-12,7.5-19.9,17.6-19.9
				C1263.8,338.6,1270.5,346.5,1270.5,357.8z M1241.1,358.4c0,8.1,4.4,15.4,12.1,15.4c7.8,0,12.2-7.1,12.2-15.8
				c0-7.5-3.9-15.4-12.1-15.4C1245.2,342.6,1241.1,350.1,1241.1,358.4z"/>
			<path class="st4" d="M1295,365.2l-3.9,11.9h-5.1l12.9-37.9h5.9l12.9,37.9h-5.2l-4.1-11.9H1295z M1307.4,361.4l-3.7-10.9
				c-0.8-2.5-1.4-4.7-2-6.9h-0.1c-0.6,2.3-1.2,4.6-1.9,6.9l-3.7,11L1307.4,361.4L1307.4,361.4z"/>
			<path class="st4" d="M1323.3,339.7c3-0.5,6.5-0.8,10.4-0.8c7,0,12,1.6,15.4,4.7c3.4,3.1,5.3,7.5,5.3,13.6
				c0,6.2-1.9,11.3-5.5,14.8c-3.6,3.5-9.4,5.5-16.8,5.5c-3.5,0-6.4-0.2-8.9-0.5L1323.3,339.7L1323.3,339.7z M1328.2,373.3
				c1.2,0.2,3,0.3,4.9,0.3c10.5,0,16.2-5.9,16.2-16.1c0.1-9-5-14.6-15.4-14.6c-2.5,0-4.4,0.2-5.7,0.5V373.3z"/>
			<path class="st4" d="M1392.7,360.5c-0.3-5.3-0.6-11.6-0.6-16.4h-0.2c-1.3,4.5-2.9,9.2-4.8,14.4l-6.7,18.4h-3.7l-6.1-18.1
				c-1.8-5.4-3.3-10.2-4.4-14.8h-0.1c-0.1,4.7-0.4,11.1-0.7,16.8l-1,16.3h-4.7l2.7-37.9h6.3l6.5,18.4c1.6,4.7,2.9,8.8,3.8,12.8h0.2
				c1-3.8,2.3-8,4-12.8l6.8-18.4h6.3l2.4,37.9h-4.8L1392.7,360.5z"/>
			<path class="st4" d="M1410.9,339.2v37.9h-4.9v-37.9H1410.9z"/>
			<path class="st4" d="M1418.8,371.2c2.2,1.4,5.4,2.5,8.8,2.5c5,0,7.9-2.6,7.9-6.5c0-3.5-2-5.6-7.2-7.5c-6.2-2.2-10-5.4-10-10.8
				c0-5.9,4.9-10.3,12.3-10.3c3.9,0,6.7,0.9,8.4,1.9l-1.3,4c-1.2-0.7-3.8-1.8-7.2-1.8c-5.2,0-7.2,3.1-7.2,5.7c0,3.5,2.3,5.3,7.5,7.3
				c6.4,2.5,9.7,5.6,9.7,11.1c0,5.9-4.3,10.9-13.3,10.9c-3.7,0-7.7-1.1-9.7-2.4L1418.8,371.2z"/>
			<path class="st4" d="M1454.4,343.4h-11.5v-4.2h28.1v4.2h-11.6v33.8h-4.9V343.4z"/>
			<path class="st4" d="M1475.2,339.7c2.5-0.5,6-0.8,9.4-0.8c5.2,0,8.6,1,11,3.1c1.9,1.7,3,4.3,3,7.2c0,5-3.2,8.3-7.2,9.7v0.2
				c2.9,1,4.7,3.7,5.6,7.7c1.2,5.3,2.1,9,2.9,10.4h-5.1c-0.6-1.1-1.5-4.3-2.5-9.1c-1.1-5.2-3.2-7.2-7.6-7.4h-4.6v16.4h-4.9
				L1475.2,339.7L1475.2,339.7z M1480.1,357h5c5.2,0,8.6-2.9,8.6-7.2c0-4.9-3.6-7-8.7-7.1c-2.4,0-4.1,0.2-4.8,0.5L1480.1,357
				L1480.1,357z"/>
			<path class="st4" d="M1511.9,365.2l-3.9,11.9h-5.1l12.9-37.9h5.9l12.9,37.9h-5.2l-4.1-11.9H1511.9z M1524.3,361.4l-3.7-10.9
				c-0.8-2.5-1.4-4.7-2-6.9h-0.1c-0.6,2.3-1.2,4.6-1.9,6.9l-3.7,11L1524.3,361.4L1524.3,361.4z"/>
			<path class="st4" d="M1543.1,343.4h-11.5v-4.2h28.1v4.2H1548v33.8h-4.9V343.4z"/>
			<path class="st4" d="M1568.7,339.2v37.9h-4.9v-37.9H1568.7z"/>
			<path class="st4" d="M1585.6,377.1l-12.4-37.9h5.3l5.9,18.7c1.6,5.1,3,9.7,4.1,14.2h0.1c1.1-4.4,2.7-9.2,4.3-14.1l6.4-18.7h5.2
				l-13.6,37.9H1585.6z"/>
			<path class="st4" d="M1611.6,365.2l-3.9,11.9h-5.1l12.9-37.9h5.9l12.9,37.9h-5.2l-4.1-11.9H1611.6z M1624.1,361.4l-3.7-10.9
				c-0.8-2.5-1.4-4.7-2-6.9h-0.1c-0.6,2.3-1.2,4.6-1.9,6.9l-3.7,11L1624.1,361.4L1624.1,361.4z"/>
		</g>
		<g class="st5">
			<g>
				<g>
					<path class="st1" d="M512,295.7v-62.5l120.5-130.4H515.9V35.5h219.3v62L613.3,228.8h128.4v67L512,295.7L512,295.7z"/>
					<path class="st1" d="M796.8,295.7l91.5-260.2h84.6l91.5,260.2h-82.9l-9.7-34.5H889l-10.1,34.5L796.8,295.7L796.8,295.7z
						 M904.2,206.7h52.5l-26-90.1L904.2,206.7z"/>
					<path class="st1" d="M1173.2,295.7V104.1h-74.9V35.5h233.4v68.6h-74.9v191.7L1173.2,295.7L1173.2,295.7z"/>
					<path class="st1" d="M1401.1,35.5h83.6v160.4c0,14.8,3.1,25.4,9.3,31.7c6.2,6.3,16.5,9.4,31,9.4c14.1,0,24.2-3.1,30.3-9.3
						c6.1-6.2,9.1-16.8,9.1-31.9V35.5h83.6v166.9c0,32.6-10.5,57.5-31.5,74.7c-21,17.2-51.5,25.8-91.4,25.8
						c-40.2,0-70.8-8.6-92.1-25.9c-21.2-17.3-31.8-42.1-31.8-74.6L1401.1,35.5L1401.1,35.5z"/>
				</g>
			</g>
			<defs>
				<filter id="Adobe_OpacityMaskFilter" filterUnits="userSpaceOnUse" x="512" y="35.5" width="1135.9" height="267.5">
					
						<feColorMatrix  type="matrix" values="-1 0 0 0 1  0 -1 0 0 1  0 0 -1 0 1  0 0 0 1 0" color-interpolation-filters="sRGB" result="source"/>
				</filter>
			</defs>
			<mask maskUnits="userSpaceOnUse" x="512" y="35.5" width="1135.9" height="267.5" id="SVGID_2_">
				<g class="st6">
					
						<image style="overflow:visible;" width="1140" height="273" xlink:href="2933BA53.jpg"  transform="matrix(1 0 0 1 510 32.95)">
					</image>
				</g>
			</mask>
			<g class="st7">
				<g>
					<path class="st8" d="M512,295.7v-62.5l120.5-130.4H515.9V35.5h219.3v62L613.3,228.8h128.4v67L512,295.7L512,295.7z"/>
					<path class="st8" d="M796.8,295.7l91.5-260.2h84.6l91.5,260.2h-82.9l-9.7-34.5H889l-10.1,34.5L796.8,295.7L796.8,295.7z
						 M904.2,206.7h52.5l-26-90.1L904.2,206.7z"/>
					<path class="st8" d="M1173.2,295.7V104.1h-74.9V35.5h233.4v68.6h-74.9v191.7L1173.2,295.7L1173.2,295.7z"/>
					<path class="st8" d="M1401.1,35.5h83.6v160.4c0,14.8,3.1,25.4,9.3,31.7c6.2,6.3,16.5,9.4,31,9.4c14.1,0,24.2-3.1,30.3-9.3
						c6.1-6.2,9.1-16.8,9.1-31.9V35.5h83.6v166.9c0,32.6-10.5,57.5-31.5,74.7c-21,17.2-51.5,25.8-91.4,25.8
						c-40.2,0-70.8-8.6-92.1-25.9c-21.2-17.3-31.8-42.1-31.8-74.6L1401.1,35.5L1401.1,35.5z"/>
				</g>
			</g>
		</g>
	</g>
</g>
</svg>
